<svg xmlns="http://www.w3.org/2000/svg" viewBox="0 0 24 24" role="img" aria-labelledby="whatsappTitle">
  <title id="whatsappTitle">WhatsApp</title>
  <path fill="#ff2b10" d="M12 2a9.6 9.6 0 0 1 8.18 14.64A9.6 9.6 0 0 1 8.7 20.95L2 22l1.35-6.25A9.6 9.6 0 0 1 12 2Zm0 2.2a7.4 7.4 0 0 0-6.46 11l.28.47-.78 3.62 3.9-.61.45.24A7.4 7.4 0 1 0 12 4.2Zm-3.2 3.92c.22-.13.53-.14.76-.04.2.08.38.34.55.76l.52 1.27c.12.3.07.62-.15.86l-.43.47c-.1.11-.12.27-.04.4.45.77 1.04 1.45 1.76 2.03.68.55 1.42.97 2.22 1.26.14.05.3 0 .38-.12l.44-.62c.2-.28.58-.38.9-.24l1.36.62c.42.2.7.39.78.6.08.22.03.52-.12.74-.43.64-1.03 1.08-1.78 1.28-.82.22-1.84.1-3.04-.38a11.96 11.96 0 0 1-4.04-2.83 11.78 11.78 0 0 1-2.48-3.66c-.48-1.2-.56-2.23-.23-3.05.27-.67.8-1.23 1.58-1.33Z"/>
</svg>
